<svg width="34" height="34" viewBox="0 0 34 34" fill="none" xmlns="http://www.w3.org/2000/svg">
<path d="M17 31.1667C24.824 31.1667 31.1666 24.824 31.1666 17C31.1666 9.17598 24.824 2.83334 17 2.83334C9.17595 2.83334 2.83331 9.17598 2.83331 17C2.83331 24.824 9.17595 31.1667 17 31.1667Z" stroke="white" stroke-width="2" stroke-linecap="round" stroke-linejoin="round"/>
<path d="M12.8775 12.75C13.2106 11.8032 13.868 11.0048 14.7333 10.4963C15.5986 9.98774 16.6159 9.80184 17.6052 9.97152C18.5944 10.1412 19.4917 10.6555 20.138 11.4233C20.7844 12.1912 21.1382 13.163 21.1367 14.1667C21.1367 17 16.8867 18.4167 16.8867 18.4167" stroke="white" stroke-width="2" stroke-linecap="round" stroke-linejoin="round"/>
<path d="M17 24.0833H17.0142" stroke="white" stroke-width="2" stroke-linecap="round" stroke-linejoin="round"/>
</svg>
